<?xml version="1.0" encoding="utf-8"?>
<!-- Generator: Adobe Illustrator 26.1.0, SVG Export Plug-In . SVG Version: 6.00 Build 0)  -->
<svg version="1.1" id="Layer_1" xmlns="http://www.w3.org/2000/svg" xmlns:xlink="http://www.w3.org/1999/xlink" x="0px" y="0px"
	 viewBox="0 0 1920 1080" style="enable-background:new 0 0 1920 1080;" xml:space="preserve">
<style type="text/css">
	.st0{fill:#F9D793;}
</style>
<path class="st0" d="M573.36,1079.82c0,0,43.91-407.86,395.15-412.66c351.24-4.8,403.07,412.66,403.07,412.66H573.36z"/>
<path class="st0" d="M0,831.94l510.12,248.64c0,0-69.83-153.72,26-195.73C631.96,842.84,0,831.94,0,831.94z"/>
<path class="st0" d="M304.49,260.31l289.67,550.46c0,0,26.19-171.7,129.43-139.72C826.82,703.03,304.49,260.31,304.49,260.31z"/>
<path class="st0" d="M922.66,0l-74.53,616.95c0,0,110.11-115.75,170.18-23.05C1078.38,686.6,922.66,0,922.66,0z"/>
<path class="st0" d="M1577.59,260.31l-421.34,397.8c0,0,151.87-7.01,142.54,102.9S1577.59,260.31,1577.59,260.31z"/>
<path class="st0" d="M1920,760L1355.74,877.8c0,0,141.26,82.98,82.71,178.59C1379.9,1151.99,1920,760,1920,760z"/>
</svg>
